<mxfile host="app.diagrams.net" modified="2024-03-11T16:05:36.349Z" agent="Mozilla/5.0 (Windows NT 10.0; Win64; x64) AppleWebKit/537.36 (KHTML, like Gecko) Chrome/122.0.0.0 Safari/537.36 Edg/122.0.0.0" etag="X6z2G1FOmqntGCwCer7-" version="24.0.4" type="google">
  <diagram name="Page-1" id="PEZ7aNEBYy3qZ9HWVg6v">
    <mxGraphModel grid="1" page="1" gridSize="10" guides="1" tooltips="1" connect="1" arrows="1" fold="1" pageScale="1" pageWidth="827" pageHeight="1169" math="0" shadow="0">
      <root>
        <mxCell id="0" />
        <mxCell id="1" parent="0" />
        <mxCell id="WwxytC_dMS3WZz1WN24u-1" value="Prototype : convert(a, sel) ; //sel=1: inch sang mét, sel ≠1: mét sang inch" style="text;html=1;align=center;verticalAlign=middle;whiteSpace=wrap;rounded=0;fontStyle=1" vertex="1" parent="1">
          <mxGeometry width="420" height="80" as="geometry" />
        </mxCell>
        <mxCell id="WwxytC_dMS3WZz1WN24u-4" value="" style="edgeStyle=orthogonalEdgeStyle;rounded=0;orthogonalLoop=1;jettySize=auto;html=1;" edge="1" parent="1" source="WwxytC_dMS3WZz1WN24u-2" target="WwxytC_dMS3WZz1WN24u-3">
          <mxGeometry relative="1" as="geometry" />
        </mxCell>
        <mxCell id="WwxytC_dMS3WZz1WN24u-2" value="Start" style="ellipse;whiteSpace=wrap;html=1;" vertex="1" parent="1">
          <mxGeometry x="330" y="80" width="120" height="80" as="geometry" />
        </mxCell>
        <mxCell id="WwxytC_dMS3WZz1WN24u-6" value="" style="edgeStyle=orthogonalEdgeStyle;rounded=0;orthogonalLoop=1;jettySize=auto;html=1;" edge="1" parent="1" source="WwxytC_dMS3WZz1WN24u-3" target="WwxytC_dMS3WZz1WN24u-5">
          <mxGeometry relative="1" as="geometry" />
        </mxCell>
        <mxCell id="WwxytC_dMS3WZz1WN24u-3" value="Input sel" style="shape=parallelogram;perimeter=parallelogramPerimeter;whiteSpace=wrap;html=1;fixedSize=1;" vertex="1" parent="1">
          <mxGeometry x="330" y="200" width="120" height="60" as="geometry" />
        </mxCell>
        <mxCell id="WwxytC_dMS3WZz1WN24u-8" value="" style="edgeStyle=orthogonalEdgeStyle;rounded=0;orthogonalLoop=1;jettySize=auto;html=1;" edge="1" parent="1" source="WwxytC_dMS3WZz1WN24u-5" target="WwxytC_dMS3WZz1WN24u-7">
          <mxGeometry relative="1" as="geometry" />
        </mxCell>
        <mxCell id="WwxytC_dMS3WZz1WN24u-10" value="" style="edgeStyle=orthogonalEdgeStyle;rounded=0;orthogonalLoop=1;jettySize=auto;html=1;" edge="1" parent="1" source="WwxytC_dMS3WZz1WN24u-5" target="WwxytC_dMS3WZz1WN24u-9">
          <mxGeometry relative="1" as="geometry" />
        </mxCell>
        <mxCell id="WwxytC_dMS3WZz1WN24u-5" value="sel=1?" style="rhombus;whiteSpace=wrap;html=1;" vertex="1" parent="1">
          <mxGeometry x="320" y="300" width="140" height="80" as="geometry" />
        </mxCell>
        <mxCell id="WwxytC_dMS3WZz1WN24u-12" value="" style="edgeStyle=orthogonalEdgeStyle;rounded=0;orthogonalLoop=1;jettySize=auto;html=1;" edge="1" parent="1" source="WwxytC_dMS3WZz1WN24u-7" target="WwxytC_dMS3WZz1WN24u-11">
          <mxGeometry relative="1" as="geometry" />
        </mxCell>
        <mxCell id="WwxytC_dMS3WZz1WN24u-7" value="Input a" style="shape=parallelogram;perimeter=parallelogramPerimeter;whiteSpace=wrap;html=1;fixedSize=1;" vertex="1" parent="1">
          <mxGeometry x="140" y="390" width="120" height="60" as="geometry" />
        </mxCell>
        <mxCell id="WwxytC_dMS3WZz1WN24u-14" value="" style="edgeStyle=orthogonalEdgeStyle;rounded=0;orthogonalLoop=1;jettySize=auto;html=1;" edge="1" parent="1" source="WwxytC_dMS3WZz1WN24u-9" target="WwxytC_dMS3WZz1WN24u-13">
          <mxGeometry relative="1" as="geometry" />
        </mxCell>
        <mxCell id="WwxytC_dMS3WZz1WN24u-9" value="&#xa;&lt;span style=&quot;color: rgb(0, 0, 0); font-family: Helvetica; font-size: 12px; font-style: normal; font-variant-ligatures: normal; font-variant-caps: normal; font-weight: 400; letter-spacing: normal; orphans: 2; text-align: center; text-indent: 0px; text-transform: none; widows: 2; word-spacing: 0px; -webkit-text-stroke-width: 0px; white-space: normal; background-color: rgb(251, 251, 251); text-decoration-thickness: initial; text-decoration-style: initial; text-decoration-color: initial; display: inline !important; float: none;&quot;&gt;Input a&lt;/span&gt;&#xa;&#xa;" style="shape=parallelogram;perimeter=parallelogramPerimeter;whiteSpace=wrap;html=1;fixedSize=1;" vertex="1" parent="1">
          <mxGeometry x="520" y="390" width="120" height="60" as="geometry" />
        </mxCell>
        <mxCell id="WwxytC_dMS3WZz1WN24u-16" value="" style="edgeStyle=orthogonalEdgeStyle;rounded=0;orthogonalLoop=1;jettySize=auto;html=1;" edge="1" parent="1" source="WwxytC_dMS3WZz1WN24u-11" target="WwxytC_dMS3WZz1WN24u-15">
          <mxGeometry relative="1" as="geometry" />
        </mxCell>
        <mxCell id="WwxytC_dMS3WZz1WN24u-11" value="m&amp;lt;--a*2.54/100" style="whiteSpace=wrap;html=1;" vertex="1" parent="1">
          <mxGeometry x="140" y="510" width="120" height="60" as="geometry" />
        </mxCell>
        <mxCell id="WwxytC_dMS3WZz1WN24u-18" value="" style="edgeStyle=orthogonalEdgeStyle;rounded=0;orthogonalLoop=1;jettySize=auto;html=1;" edge="1" parent="1" source="WwxytC_dMS3WZz1WN24u-13" target="WwxytC_dMS3WZz1WN24u-17">
          <mxGeometry relative="1" as="geometry" />
        </mxCell>
        <mxCell id="WwxytC_dMS3WZz1WN24u-13" value="icnh&amp;lt;--a*100/2.54" style="whiteSpace=wrap;html=1;" vertex="1" parent="1">
          <mxGeometry x="520" y="510" width="120" height="60" as="geometry" />
        </mxCell>
        <mxCell id="WwxytC_dMS3WZz1WN24u-20" value="" style="edgeStyle=orthogonalEdgeStyle;rounded=0;orthogonalLoop=1;jettySize=auto;html=1;" edge="1" parent="1" source="WwxytC_dMS3WZz1WN24u-15" target="WwxytC_dMS3WZz1WN24u-19">
          <mxGeometry relative="1" as="geometry" />
        </mxCell>
        <mxCell id="WwxytC_dMS3WZz1WN24u-15" value="Display Chieu dai met: m" style="shape=parallelogram;perimeter=parallelogramPerimeter;whiteSpace=wrap;html=1;fixedSize=1;" vertex="1" parent="1">
          <mxGeometry x="100" y="650" width="200" height="60" as="geometry" />
        </mxCell>
        <mxCell id="WwxytC_dMS3WZz1WN24u-21" value="" style="edgeStyle=orthogonalEdgeStyle;rounded=0;orthogonalLoop=1;jettySize=auto;html=1;" edge="1" parent="1" source="WwxytC_dMS3WZz1WN24u-17" target="WwxytC_dMS3WZz1WN24u-19">
          <mxGeometry relative="1" as="geometry" />
        </mxCell>
        <mxCell id="WwxytC_dMS3WZz1WN24u-17" value="Display Chieu dai inch: icnh" style="shape=parallelogram;perimeter=parallelogramPerimeter;whiteSpace=wrap;html=1;fixedSize=1;" vertex="1" parent="1">
          <mxGeometry x="470" y="650" width="220" height="60" as="geometry" />
        </mxCell>
        <mxCell id="WwxytC_dMS3WZz1WN24u-19" value="End" style="ellipse;whiteSpace=wrap;html=1;" vertex="1" parent="1">
          <mxGeometry x="320" y="770" width="120" height="80" as="geometry" />
        </mxCell>
      </root>
    </mxGraphModel>
  </diagram>
</mxfile>
